<svg version="1.1" id="Layer_1" xmlns="http://www.w3.org/2000/svg" xmlns:xlink="http://www.w3.org/1999/xlink" x="0px" y="0px"
	 width="100%" viewBox="0 0 351 351" enable-background="new 0 0 351 351" xml:space="preserve">
<path fill="#010101" opacity="1.000000" stroke="none" 
	d="
M352.000000,122.000000 
	C352.000000,199.000000 352.000000,275.500000 352.000000,352.000000 
	C235.000015,352.000000 118.000023,352.000000 1.000026,352.000000 
	C1.000017,235.000015 1.000017,118.000038 1.000009,1.000042 
	C117.999969,1.000028 234.999939,1.000028 351.999939,1.000014 
	C352.000000,41.166668 352.000000,81.333336 352.000000,122.000000 
M285.473785,339.919189 
	C286.410187,338.949768 288.263763,337.817200 288.125336,337.039001 
	C287.502350,333.537323 289.663910,332.657043 292.081390,331.168396 
	C299.131805,326.826996 306.593475,322.817352 312.708740,317.351624 
	C339.229492,293.647858 345.737305,255.497330 329.349365,223.261078 
	C313.848724,192.770218 278.384491,175.765289 244.483429,182.568237 
	C209.956253,189.496857 183.950760,219.083939 181.530029,254.191910 
	C179.309998,286.388763 196.863449,316.485229 226.106918,330.539642 
	C229.126572,331.990875 232.427155,332.967804 231.496124,337.576813 
	C231.398788,338.058685 233.807083,339.046661 235.979630,339.893311 
	C252.230347,339.854156 268.481049,339.815002 285.473785,339.919189 
M67.039505,12.080789 
	C66.068054,12.687899 64.176231,13.531941 64.262436,13.866783 
	C65.685295,19.393919 61.285229,20.159691 57.985046,21.745983 
	C25.483110,37.368622 7.533961,75.410553 16.322817,110.318016 
	C22.557993,135.082809 37.377434,152.865738 60.405365,163.814026 
	C62.756653,164.931915 64.932869,165.783005 64.205215,169.141663 
	C63.511234,172.344833 65.736717,172.161697 68.813354,171.964493 
	C85.020393,171.930756 101.227425,171.897018 118.223984,171.983490 
	C119.145874,171.546677 120.915230,170.919373 120.866104,170.700821 
	C119.524971,164.734543 124.423531,164.091827 127.911018,162.341003 
	C159.851151,146.306305 177.171768,109.933037 169.115448,75.273277 
	C163.289536,50.209167 148.639709,32.074688 125.407028,20.945492 
	C122.799232,19.696278 120.190300,18.747902 120.989326,14.895920 
	C121.628708,11.813527 119.596306,11.697920 116.339951,12.166362 
	C100.165703,12.200927 83.991455,12.235493 67.039505,12.080789 
M13.022764,235.837234 
	C13.059820,252.085312 13.096875,268.333374 13.015583,285.239960 
	C13.739261,286.209198 14.694790,288.114624 15.150482,288.001770 
	C19.358416,286.959656 20.167540,290.013702 21.480492,292.718872 
	C32.207832,314.820953 49.321190,329.378723 73.106598,335.721985 
	C111.351326,345.921387 152.009933,324.764038 165.890442,287.625702 
	C180.084320,249.648941 163.551819,207.034363 127.707420,189.548172 
	C123.330856,187.413132 118.947357,185.776474 121.627022,178.990479 
	C119.522842,179.183594 118.290199,179.296707 116.103592,179.409500 
	C99.977615,179.424591 83.851631,179.439682 66.998978,179.195709 
	C66.048538,180.343033 64.214111,181.576965 64.316414,182.621140 
	C64.602478,185.541077 63.364582,186.742950 60.943447,187.837875 
	C42.458248,196.197525 29.166243,209.753204 20.601210,228.127014 
	C19.927219,229.572891 17.550993,230.994446 15.913491,231.057053 
	C12.793283,231.176331 12.761443,232.680527 13.022764,235.837234 
M179.387131,117.728729 
	C180.016983,118.733032 180.899307,120.690514 181.239288,120.600456 
	C187.634430,118.906548 188.051743,124.298180 189.960861,127.813217 
	C205.024261,155.547821 228.473846,170.559418 259.857239,170.583237 
	C291.281586,170.607101 315.360657,155.774048 329.581970,127.694672 
	C350.188995,87.006889 333.463470,40.446003 292.231689,20.757240 
	C289.731171,19.563204 287.391541,18.613848 288.210266,15.005128 
	C288.883301,12.038447 287.041901,11.619781 283.759308,12.178387 
	C267.514160,12.209271 251.269028,12.240157 234.241531,12.086073 
	C233.280533,13.040569 231.397873,14.134465 231.517502,14.925512 
	C232.046234,18.421387 230.017197,19.576284 227.420059,20.767418 
	C209.610641,28.935486 196.597549,41.959240 188.501999,59.795429 
	C187.174927,62.719215 185.731812,64.411072 182.182022,63.781471 
	C179.095139,63.233963 178.231003,64.811691 179.665909,68.450150 
	C179.699646,84.700272 179.733383,100.950386 179.387131,117.728729 
z"/>
<path fill="#717B6E" opacity="1.000000" stroke="none" 
	d="
M179.646713,67.592155 
	C178.231003,64.811691 179.095139,63.233963 182.182022,63.781471 
	C185.731812,64.411072 187.174927,62.719215 188.501999,59.795429 
	C196.597549,41.959240 209.610641,28.935486 227.420059,20.767418 
	C230.017197,19.576284 232.046234,18.421387 231.517502,14.925512 
	C231.397873,14.134465 233.280533,13.040569 234.659912,12.574022 
	C236.086365,26.776051 246.651596,36.797688 259.984833,36.687019 
	C273.545441,36.574463 283.746643,26.465998 284.648407,12.247683 
	C287.041901,11.619781 288.883301,12.038447 288.210266,15.005128 
	C287.391541,18.613848 289.731171,19.563204 292.231689,20.757240 
	C333.463470,40.446003 350.188995,87.006889 329.581970,127.694672 
	C315.360657,155.774048 291.281586,170.607101 259.857239,170.583237 
	C228.473846,170.559418 205.024261,155.547821 189.960861,127.813217 
	C188.051743,124.298180 187.634430,118.906548 181.239288,120.600456 
	C180.899307,120.690514 180.016983,118.733032 179.996231,117.388039 
	C182.573059,116.721367 184.587036,116.564636 186.500992,116.041832 
	C198.584091,112.741302 205.962189,100.722351 203.954010,87.742203 
	C202.154282,76.109589 191.461761,67.245796 179.646713,67.592155 
M201.854843,45.401951 
	C198.703262,50.482040 195.547409,55.559483 192.401672,60.643188 
	C190.483154,63.743626 190.964371,65.638199 194.396027,67.780762 
	C212.781815,79.259949 212.894882,104.898514 194.653030,116.438911 
	C191.248734,118.592590 190.666794,120.325256 192.394058,123.990700 
	C214.096832,170.046249 274.822479,181.285919 311.436676,145.923447 
	C349.030609,109.614700 338.562469,46.100979 291.537384,24.663067 
	C287.936218,23.021366 286.206696,23.375883 284.038574,26.931980 
	C273.148346,44.793774 247.148819,45.122326 235.992630,27.455774 
	C233.319901,23.223354 231.038727,23.137852 227.172546,25.129858 
	C217.567169,30.078915 209.178223,36.483017 201.854843,45.401951 
z"/>
<path fill="#727A6F" opacity="1.000000" stroke="none" 
	d="
M117.057549,179.409851 
	C118.290199,179.296707 119.522842,179.183594 121.627022,178.990479 
	C118.947357,185.776474 123.330856,187.413132 127.707420,189.548172 
	C163.551819,207.034363 180.084320,249.648941 165.890442,287.625702 
	C152.009933,324.764038 111.351326,345.921387 73.106598,335.721985 
	C49.321190,329.378723 32.207832,314.820953 21.480492,292.718872 
	C20.167540,290.013702 19.358416,286.959656 15.150482,288.001770 
	C14.694790,288.114624 13.739261,286.209198 13.489902,284.878540 
	C28.342291,282.377258 37.691303,271.982666 37.128208,258.762512 
	C36.567066,245.588150 26.695000,235.766510 13.134629,234.891479 
	C12.761443,232.680527 12.793283,231.176331 15.913491,231.057053 
	C17.550993,230.994446 19.927219,229.572891 20.601210,228.127014 
	C29.166243,209.753204 42.458248,196.197525 60.943447,187.837875 
	C63.364582,186.742950 64.602478,185.541077 64.316414,182.621140 
	C64.214111,181.576965 66.048538,180.343033 67.437775,179.706726 
	C68.226051,182.333115 68.416527,184.489624 68.951332,186.557068 
	C71.949516,198.147308 84.127869,205.671692 96.732445,203.801620 
	C108.565102,202.046066 117.672836,191.116043 117.057549,179.409851 
M161.269562,288.565552 
	C179.083099,245.024551 153.404648,202.069534 119.554878,190.570297 
	C119.163033,191.035324 118.622215,191.477386 118.334625,192.047256 
	C107.537025,213.442657 77.662987,212.635590 67.499138,193.078995 
	C65.998383,190.191345 64.032410,190.717026 61.666878,191.823608 
	C45.002655,199.619019 32.888172,211.919922 24.925453,228.458023 
	C23.525587,231.365448 23.694090,233.075043 26.689724,234.973099 
	C45.860691,247.119827 45.800560,272.286407 26.579475,284.457825 
	C23.813532,286.209320 23.193594,287.935303 24.815689,290.525177 
	C28.515608,296.432648 31.594526,302.914215 36.165359,308.061829 
	C73.411179,350.007507 137.262695,340.292511 161.269562,288.565552 
z"/>
<path fill="#717971" opacity="1.000000" stroke="none" 
	d="
M117.330452,12.243770 
	C119.596306,11.697920 121.628708,11.813527 120.989326,14.895920 
	C120.190300,18.747902 122.799232,19.696278 125.407028,20.945492 
	C148.639709,32.074688 163.289536,50.209167 169.115448,75.273277 
	C177.171768,109.933037 159.851151,146.306305 127.911018,162.341003 
	C124.423531,164.091827 119.524971,164.734543 120.866104,170.700821 
	C120.915230,170.919373 119.145874,171.546677 117.800888,171.510468 
	C115.424980,156.785751 105.379822,147.497467 92.195915,147.752930 
	C78.928391,148.010025 68.964729,157.882446 67.862297,171.863754 
	C65.736717,172.161697 63.511234,172.344833 64.205215,169.141663 
	C64.932869,165.783005 62.756653,164.931915 60.405365,163.814026 
	C37.377434,152.865738 22.557993,135.082809 16.322817,110.318016 
	C7.533961,75.410553 25.483110,37.368622 57.985046,21.745983 
	C61.285229,20.159691 65.685295,19.393919 64.262436,13.866783 
	C64.176231,13.531941 66.068054,12.687899 67.463173,12.573095 
	C68.992569,26.884911 79.444794,36.800488 92.767769,36.668880 
	C106.424759,36.533974 116.763359,26.253277 117.330452,12.243770 
M18.085274,93.353043 
	C19.605442,123.588005 33.798847,145.654434 60.666012,159.631775 
	C63.988144,161.360077 65.970863,161.410995 68.280739,157.708984 
	C79.885460,139.110245 105.497353,139.301865 117.177094,158.034576 
	C119.193565,161.268723 121.070869,161.787415 123.940392,159.849442 
	C130.669312,155.304993 138.032883,151.427292 143.934692,145.975418 
	C181.879349,110.923439 171.365158,46.431919 124.495987,24.746859 
	C121.103966,23.177462 119.246857,23.024956 116.931580,26.720304 
	C105.379692,45.157993 79.837181,45.179783 68.332466,26.790331 
	C66.077553,23.186012 64.180328,22.975708 60.759956,24.745626 
	C33.255585,38.978138 19.151138,61.592670 18.085274,93.353043 
z"/>
<path fill="#6F7771" opacity="1.000000" stroke="none" 
	d="
M235.052841,339.799835 
	C233.807083,339.046661 231.398788,338.058685 231.496124,337.576813 
	C232.427155,332.967804 229.126572,331.990875 226.106918,330.539642 
	C196.863449,316.485229 179.309998,286.388763 181.530029,254.191910 
	C183.950760,219.083939 209.956253,189.496857 244.483429,182.568237 
	C278.384491,175.765289 313.848724,192.770218 329.349365,223.261078 
	C345.737305,255.497330 339.229492,293.647858 312.708740,317.351624 
	C306.593475,322.817352 299.131805,326.826996 292.081390,331.168396 
	C289.663910,332.657043 287.502350,333.537323 288.125336,337.039001 
	C288.263763,337.817200 286.410187,338.949768 285.074402,339.463867 
	C282.765747,324.319000 272.184814,314.519958 258.940521,315.175751 
	C245.627609,315.834991 235.798615,325.967010 235.052841,339.799835 
M317.929016,306.367737 
	C334.242249,284.924225 339.044525,261.094421 330.139618,235.697922 
	C319.620117,205.696793 297.576843,188.276367 265.999878,185.543442 
	C235.238876,182.881119 211.202316,196.080261 195.313095,222.584198 
	C173.146378,259.559265 189.226959,309.712555 228.280655,327.259888 
	C231.652725,328.774994 233.386017,328.483826 235.485855,325.143890 
	C247.056839,306.739502 272.708313,306.675415 284.109192,325.041077 
	C286.364655,328.674438 288.307831,328.748901 291.734009,327.101318 
	C301.822662,322.249969 310.296906,315.435638 317.929016,306.367737 
z"/>
<path fill="#0303FA" opacity="1.000000" stroke="none" 
	d="
M235.516235,339.846558 
	C235.798615,325.967010 245.627609,315.834991 258.940521,315.175751 
	C272.184814,314.519958 282.765747,324.319000 284.703369,339.392212 
	C268.481049,339.815002 252.230347,339.854156 235.516235,339.846558 
z"/>
<path fill="#FDFD02" opacity="1.000000" stroke="none" 
	d="
M116.580566,179.409668 
	C117.672836,191.116043 108.565102,202.046066 96.732445,203.801620 
	C84.127869,205.671692 71.949516,198.147308 68.951332,186.557068 
	C68.416527,184.489624 68.226051,182.333115 67.801117,179.836243 
	C83.851631,179.439682 99.977615,179.424591 116.580566,179.409668 
z"/>
<path fill="#FBFB03" opacity="1.000000" stroke="none" 
	d="
M179.656311,68.021149 
	C191.461761,67.245796 202.154282,76.109589 203.954010,87.742203 
	C205.962189,100.722351 198.584091,112.741302 186.500992,116.041832 
	C184.587036,116.564636 182.573059,116.721367 180.186218,117.123932 
	C179.733383,100.950386 179.699646,84.700272 179.656311,68.021149 
z"/>
<path fill="#03FAFA" opacity="1.000000" stroke="none" 
	d="
M284.203857,12.213035 
	C283.746643,26.465998 273.545441,36.574463 259.984833,36.687019 
	C246.651596,36.797688 236.086365,26.776051 235.051086,12.666508 
	C251.269028,12.240157 267.514160,12.209271 284.203857,12.213035 
z"/>
<path fill="#02FAFA" opacity="1.000000" stroke="none" 
	d="
M116.835205,12.205066 
	C116.763359,26.253277 106.424759,36.533974 92.767769,36.668880 
	C79.444794,36.800488 68.992569,26.884911 67.852020,12.667730 
	C83.991455,12.235493 100.165703,12.200927 116.835205,12.205066 
z"/>
<path fill="#FD0202" opacity="1.000000" stroke="none" 
	d="
M68.337830,171.914124 
	C68.964729,157.882446 78.928391,148.010025 92.195915,147.752930 
	C105.379822,147.497467 115.424980,156.785751 117.406128,171.450378 
	C101.227425,171.897018 85.020393,171.930756 68.337830,171.914124 
z"/>
<path fill="#0303FC" opacity="1.000000" stroke="none" 
	d="
M13.078697,235.364349 
	C26.695000,235.766510 36.567066,245.588150 37.128208,258.762512 
	C37.691303,271.982666 28.342291,282.377258 13.549076,284.549286 
	C13.096875,268.333374 13.059820,252.085312 13.078697,235.364349 
z"/>
<path fill="#027F02" opacity="1.000000" stroke="none" 
	d="
M202.091064,45.132339 
	C209.178223,36.483017 217.567169,30.078915 227.172546,25.129858 
	C231.038727,23.137852 233.319901,23.223354 235.992630,27.455774 
	C247.148819,45.122326 273.148346,44.793774 284.038574,26.931980 
	C286.206696,23.375883 287.936218,23.021366 291.537384,24.663067 
	C338.562469,46.100979 349.030609,109.614700 311.436676,145.923447 
	C274.822479,181.285919 214.096832,170.046249 192.394058,123.990700 
	C190.666794,120.325256 191.248734,118.592590 194.653030,116.438911 
	C212.894882,104.898514 212.781815,79.259949 194.396027,67.780762 
	C190.964371,65.638199 190.483154,63.743626 192.401672,60.643188 
	C195.547409,55.559483 198.703262,50.482040 202.091064,45.132339 
M268.015930,133.617615 
	C284.526733,129.476791 295.668243,119.659912 300.370941,103.027000 
	C305.221344,85.871841 297.688446,66.154793 282.702484,56.801182 
	C266.005157,46.379406 245.462936,48.267334 231.010376,61.551987 
	C217.724564,73.764183 213.996017,94.478363 222.003937,110.643410 
	C229.231369,125.232933 245.879166,137.144257 268.015930,133.617615 
z"/>
<path fill="#027F02" opacity="1.000000" stroke="none" 
	d="
M161.128723,288.921509 
	C137.262695,340.292511 73.411179,350.007507 36.165359,308.061829 
	C31.594526,302.914215 28.515608,296.432648 24.815689,290.525177 
	C23.193594,287.935303 23.813532,286.209320 26.579475,284.457825 
	C45.800560,272.286407 45.860691,247.119827 26.689724,234.973099 
	C23.694090,233.075043 23.525587,231.365448 24.925453,228.458023 
	C32.888172,211.919922 45.002655,199.619019 61.666878,191.823608 
	C64.032410,190.717026 65.998383,190.191345 67.499138,193.078995 
	C77.662987,212.635590 107.537025,213.442657 118.334625,192.047256 
	C118.622215,191.477386 119.163033,191.035324 119.554878,190.570297 
	C153.404648,202.069534 179.083099,245.024551 161.128723,288.921509 
M130.826431,277.300140 
	C137.587494,260.495575 135.841568,244.784271 123.476921,231.309097 
	C112.067902,218.875366 97.562912,214.440796 81.219170,219.313400 
	C62.897568,224.775665 52.421570,237.601349 50.797394,256.623932 
	C49.371914,273.319336 56.393200,286.664764 70.597504,295.408661 
	C92.238365,308.730377 117.829483,301.017548 130.826431,277.300140 
z"/>
<path fill="#018001" opacity="1.000000" stroke="none" 
	d="
M18.078737,92.902817 
	C19.151138,61.592670 33.255585,38.978138 60.759956,24.745626 
	C64.180328,22.975708 66.077553,23.186012 68.332466,26.790331 
	C79.837181,45.179783 105.379692,45.157993 116.931580,26.720304 
	C119.246857,23.024956 121.103966,23.177462 124.495987,24.746859 
	C171.365158,46.431919 181.879349,110.923439 143.934692,145.975418 
	C138.032883,151.427292 130.669312,155.304993 123.940392,159.849442 
	C121.070869,161.787415 119.193565,161.268723 117.177094,158.034576 
	C105.497353,139.301865 79.885460,139.110245 68.280739,157.708984 
	C65.970863,161.410995 63.988144,161.360077 60.666012,159.631775 
	C33.798847,145.654434 19.605442,123.588005 18.078737,92.902817 
z"/>
<path fill="#018001" opacity="1.000000" stroke="none" 
	d="
M317.704498,306.646667 
	C310.296906,315.435638 301.822662,322.249969 291.734009,327.101318 
	C288.307831,328.748901 286.364655,328.674438 284.109192,325.041077 
	C272.708313,306.675415 247.056839,306.739502 235.485855,325.143890 
	C233.386017,328.483826 231.652725,328.774994 228.280655,327.259888 
	C189.226959,309.712555 173.146378,259.559265 195.313095,222.584198 
	C211.202316,196.080261 235.238876,182.881119 265.999878,185.543442 
	C297.576843,188.276367 319.620117,205.696793 330.139618,235.697922 
	C339.044525,261.094421 334.242249,284.924225 317.704498,306.646667 
M269.652588,261.803040 
	C273.979156,261.787354 278.313202,261.907104 282.627625,261.670349 
	C283.861908,261.602631 285.039551,260.502472 286.243164,259.875702 
	C285.040436,259.056763 283.876099,257.606567 282.628174,257.530701 
	C277.819092,257.238342 272.969666,257.152252 268.161285,257.433838 
	C263.293854,257.718933 261.639526,255.646942 261.879181,250.985901 
	C262.126617,246.173798 262.034729,241.330475 261.786407,236.516541 
	C261.725708,235.339767 260.474640,234.224380 259.770844,233.080765 
	C259.036499,234.216599 257.729950,235.321838 257.667328,236.493576 
	C257.401093,241.472946 257.352722,246.477036 257.517853,251.462387 
	C257.657074,255.667130 256.080048,257.621613 251.708984,257.405640 
	C247.559097,257.200653 243.372574,257.147278 239.237839,257.475983 
	C237.182709,257.639404 235.207581,258.808899 233.196243,259.523254 
	C235.117706,260.281891 237.000839,261.547729 238.968414,261.696411 
	C243.436859,262.034058 247.948303,261.898041 252.439438,261.809998 
	C256.048920,261.739258 257.556549,263.405640 257.483795,266.955017 
	C257.388306,271.612335 257.268738,276.288605 257.598816,280.925446 
	C257.726929,282.725311 259.053589,284.439850 259.834290,286.193237 
	C260.531433,284.373901 261.684967,282.590454 261.831390,280.727814 
	C262.143494,276.758148 261.903687,272.747040 261.943298,268.753479 
	C262.007050,262.329834 262.240997,262.108521 269.652588,261.803040 
z"/>
<path fill="#001200" opacity="1.000000" stroke="none" 
	d="
M267.596497,133.672546 
	C245.879166,137.144257 229.231369,125.232933 222.003937,110.643410 
	C213.996017,94.478363 217.724564,73.764183 231.010376,61.551987 
	C245.462936,48.267334 266.005157,46.379406 282.702484,56.801182 
	C297.688446,66.154793 305.221344,85.871841 300.370941,103.027000 
	C295.668243,119.659912 284.526733,129.476791 267.596497,133.672546 
M284.811798,63.663433 
	C271.702362,52.506081 254.885071,51.113102 239.752090,59.931141 
	C224.231552,68.975014 217.575348,90.271095 224.949341,107.291458 
	C232.470474,124.651390 252.519318,134.103180 270.014862,128.873230 
	C300.328888,119.811462 306.288666,82.656525 284.811798,63.663433 
z"/>
<path fill="#001200" opacity="1.000000" stroke="none" 
	d="
M130.647583,277.629639 
	C117.829483,301.017548 92.238365,308.730377 70.597504,295.408661 
	C56.393200,286.664764 49.371914,273.319336 50.797394,256.623932 
	C52.421570,237.601349 62.897568,224.775665 81.219170,219.313400 
	C97.562912,214.440796 112.067902,218.875366 123.476921,231.309097 
	C135.841568,244.784271 137.587494,260.495575 130.647583,277.629639 
M128.083420,273.327637 
	C128.850677,269.259949 130.089050,265.217041 130.304382,261.120361 
	C131.282547,242.511093 118.385826,226.071503 100.226212,222.381790 
	C82.242836,218.727890 63.757904,228.768173 57.350983,245.669922 
	C50.572086,263.552979 57.408005,282.994781 73.459457,292.545685 
	C89.344078,301.997345 116.986328,299.217072 128.083420,273.327637 
z"/>
<path fill="#001700" opacity="1.000000" stroke="none" 
	d="
M269.178040,261.804382 
	C262.240997,262.108521 262.007050,262.329834 261.943298,268.753479 
	C261.903687,272.747040 262.143494,276.758148 261.831390,280.727814 
	C261.684967,282.590454 260.531433,284.373901 259.834290,286.193237 
	C259.053589,284.439850 257.726929,282.725311 257.598816,280.925446 
	C257.268738,276.288605 257.388306,271.612335 257.483795,266.955017 
	C257.556549,263.405640 256.048920,261.739258 252.439438,261.809998 
	C247.948303,261.898041 243.436859,262.034058 238.968414,261.696411 
	C237.000839,261.547729 235.117706,260.281891 233.196243,259.523254 
	C235.207581,258.808899 237.182709,257.639404 239.237839,257.475983 
	C243.372574,257.147278 247.559097,257.200653 251.708984,257.405640 
	C256.080048,257.621613 257.657074,255.667130 257.517853,251.462387 
	C257.352722,246.477036 257.401093,241.472946 257.667328,236.493576 
	C257.729950,235.321838 259.036499,234.216599 259.770844,233.080780 
	C260.474640,234.224380 261.725708,235.339767 261.786407,236.516541 
	C262.034729,241.330475 262.126617,246.173798 261.879181,250.985901 
	C261.639526,255.646942 263.293854,257.718933 268.161285,257.433838 
	C272.969666,257.152252 277.819092,257.238342 282.628174,257.530701 
	C283.876099,257.606567 285.040436,259.056763 286.243164,259.875702 
	C285.039551,260.502472 283.861908,261.602631 282.627625,261.670349 
	C278.313202,261.907104 273.979156,261.787354 269.178040,261.804382 
z"/>
<path fill="#007D00" opacity="1.000000" stroke="none" 
	d="
M285.085083,63.893532 
	C306.288666,82.656525 300.328888,119.811462 270.014862,128.873230 
	C252.519318,134.103180 232.470474,124.651390 224.949341,107.291458 
	C217.575348,90.271095 224.231552,68.975014 239.752090,59.931141 
	C254.885071,51.113102 271.702362,52.506081 285.085083,63.893532 
M251.314011,90.077324 
	C247.323853,90.081253 243.311691,89.838997 239.352768,90.192673 
	C237.364731,90.370285 235.473511,91.631927 233.538498,92.403328 
	C235.555969,93.101181 237.537659,94.234390 239.598572,94.403831 
	C243.562454,94.729736 247.577042,94.647659 251.559738,94.478661 
	C255.764496,94.300255 257.704651,95.968658 257.522736,100.304817 
	C257.341675,104.619431 257.273376,108.966606 257.618713,113.262283 
	C257.764465,115.075378 259.096100,116.793144 259.888672,118.554253 
	C260.560303,116.870285 261.707642,115.215172 261.811859,113.496780 
	C262.093201,108.857948 262.009399,104.190628 261.918518,99.537582 
	C261.848053,95.930595 263.494873,94.427002 267.048248,94.499336 
	C271.867310,94.597435 276.703003,94.692764 281.504700,94.378548 
	C283.114410,94.273224 284.641815,92.910141 286.206848,92.121964 
	C284.704926,91.447845 283.229187,90.271980 281.696228,90.191902 
	C276.721497,89.932037 271.724274,89.994492 266.738647,90.088455 
	C263.388428,90.151604 261.868225,88.739937 261.915466,85.347542 
	C261.989532,80.029007 262.005341,74.703064 261.775818,69.391930 
	C261.723785,68.187660 260.565002,67.031212 259.915680,65.852753 
	C259.182037,66.981071 257.881866,68.075752 257.812531,69.243515 
	C257.507416,74.381706 257.433807,79.543083 257.520386,84.691948 
	C257.583496,88.441612 256.154663,90.365570 251.314011,90.077324 
z"/>
<path fill="#007D00" opacity="1.000000" stroke="none" 
	d="
M127.940933,273.689240 
	C116.986328,299.217072 89.344078,301.997345 73.459457,292.545685 
	C57.408005,282.994781 50.572086,263.552979 57.350983,245.669922 
	C63.757904,228.768173 82.242836,218.727890 100.226212,222.381790 
	C118.385826,226.071503 131.282547,242.511093 130.304382,261.120361 
	C130.089050,265.217041 128.850677,269.259949 127.940933,273.689240 
M66.216270,258.974457 
	C67.569885,259.908112 68.874435,261.549774 70.285973,261.647583 
	C75.257797,261.992096 80.267693,261.883942 85.260498,261.796326 
	C88.815063,261.733948 90.429268,263.228912 90.357140,266.857666 
	C90.251297,272.182465 90.248299,277.517761 90.499565,282.834473 
	C90.553558,283.977051 91.878670,285.059509 92.618233,286.169678 
	C93.320236,285.032623 94.568687,283.923615 94.628754,282.753601 
	C94.876015,277.937317 95.017891,273.086212 94.711624,268.278931 
	C94.385208,263.155334 96.556633,261.441223 101.455162,261.737244 
	C106.098755,262.017822 110.780693,261.895905 115.431702,261.666077 
	C116.665451,261.605133 117.847412,260.495819 119.053154,259.867889 
	C117.841644,259.053467 116.668373,257.612457 115.411842,257.535797 
	C110.600616,257.242218 105.754570,257.206146 100.937012,257.421204 
	C96.503639,257.619080 94.483658,256.020660 94.728195,251.386673 
	C94.973465,246.738739 94.936264,242.054886 94.637604,237.411560 
	C94.543343,235.945892 93.207443,234.560059 92.439789,233.137695 
	C91.755135,234.499435 90.813286,235.798004 90.458839,237.240860 
	C90.110992,238.656845 90.351089,240.219498 90.348999,241.717804 
	C90.327133,257.359955 90.327660,257.310211 74.890694,257.422394 
	C72.130440,257.442444 69.374573,258.065063 66.216270,258.974457 
z"/>
<path fill="#001600" opacity="1.000000" stroke="none" 
	d="
M251.787994,90.071060 
	C256.154663,90.365570 257.583496,88.441612 257.520386,84.691948 
	C257.433807,79.543083 257.507416,74.381706 257.812531,69.243515 
	C257.881866,68.075752 259.182037,66.981071 259.915680,65.852753 
	C260.565002,67.031212 261.723785,68.187660 261.775818,69.391930 
	C262.005341,74.703064 261.989532,80.029007 261.915466,85.347542 
	C261.868225,88.739937 263.388428,90.151604 266.738647,90.088455 
	C271.724274,89.994492 276.721497,89.932037 281.696228,90.191902 
	C283.229187,90.271980 284.704926,91.447845 286.206848,92.121964 
	C284.641815,92.910141 283.114410,94.273224 281.504700,94.378548 
	C276.703003,94.692764 271.867310,94.597435 267.048248,94.499336 
	C263.494873,94.427002 261.848053,95.930595 261.918518,99.537582 
	C262.009399,104.190628 262.093201,108.857948 261.811859,113.496780 
	C261.707642,115.215172 260.560303,116.870285 259.888672,118.554245 
	C259.096100,116.793144 257.764465,115.075378 257.618713,113.262283 
	C257.273376,108.966606 257.341675,104.619431 257.522736,100.304817 
	C257.704651,95.968658 255.764496,94.300255 251.559738,94.478661 
	C247.577042,94.647659 243.562454,94.729736 239.598572,94.403831 
	C237.537659,94.234390 235.555969,93.101181 233.538498,92.403336 
	C235.473511,91.631927 237.364731,90.370285 239.352768,90.192673 
	C243.311691,89.838997 247.323853,90.081253 251.787994,90.071060 
z"/>
<path fill="#001800" opacity="1.000000" stroke="none" 
	d="
M66.416473,258.691956 
	C69.374573,258.065063 72.130440,257.442444 74.890694,257.422394 
	C90.327660,257.310211 90.327133,257.359955 90.348999,241.717804 
	C90.351089,240.219498 90.110992,238.656845 90.458839,237.240860 
	C90.813286,235.798004 91.755135,234.499435 92.439789,233.137695 
	C93.207443,234.560059 94.543343,235.945892 94.637604,237.411560 
	C94.936264,242.054886 94.973465,246.738739 94.728195,251.386673 
	C94.483658,256.020660 96.503639,257.619080 100.937012,257.421204 
	C105.754570,257.206146 110.600616,257.242218 115.411842,257.535797 
	C116.668373,257.612457 117.841644,259.053467 119.053154,259.867889 
	C117.847412,260.495819 116.665451,261.605133 115.431702,261.666077 
	C110.780693,261.895905 106.098755,262.017822 101.455162,261.737244 
	C96.556633,261.441223 94.385208,263.155334 94.711624,268.278931 
	C95.017891,273.086212 94.876015,277.937317 94.628754,282.753601 
	C94.568687,283.923615 93.320236,285.032623 92.618240,286.169678 
	C91.878670,285.059509 90.553558,283.977051 90.499565,282.834473 
	C90.248299,277.517761 90.251297,272.182465 90.357140,266.857666 
	C90.429268,263.228912 88.815063,261.733948 85.260498,261.796326 
	C80.267693,261.883942 75.257797,261.992096 70.285973,261.647583 
	C68.874435,261.549774 67.569885,259.908112 66.416473,258.691956 
z"/>
</svg>